<svg id="eTWPNA0zI5f1" xmlns="http://www.w3.org/2000/svg" xmlns:xlink="http://www.w3.org/1999/xlink" viewBox="0 0 350 350" 
shape-rendering="geometricPrecision" text-rendering="geometricPrecision">
<style><![CDATA[
#eTWPNA0zI5f2_tr {animation: eTWPNA0zI5f2_tr__tr 3000ms linear infinite normal forwards}@keyframes eTWPNA0zI5f2_tr__tr { 0% {transform: translate(175.443902px,176.104612px) rotate(-360deg)} 3.333333% {transform: translate(175.443902px,176.104612px) rotate(-360deg)} 100% {transform: translate(175.443902px,176.104612px) rotate(-720deg)}}
]]></style>
<g id="eTWPNA0zI5f2_tr" transform="translate(175.443902,176.104612) rotate(-360)">
<path d="M291.4,188.8c-10.6-10.2-24.6-16.1-38.4-16.1h-.1c-21.6,0-33.1,10-42.3,18-7.7,6.7-12.7,11.1-23.9,11.1h-.1c-2.8,
0-5.5-.4-8-1.2-8.7-2.9-15.5-10.2-17.6-19.2-.1-.4-.2-.7-.3-1.1s-.1-.9-.2-1.3-.1-.9-.2-1.3c-.1-.8-.1-1.7-.1-2.5c0-3.6.7-7,
2-10.1.3-.7.6-1.4,1-2.1.3-.5.5-1,.8-1.5.4-.7.8-1.3,1.3-1.9c4.9-6.8,12.8-11.2,21.8-11.2c2.7,0,5.4.4,7.9,1.2c7.4,2.3,15.2-1.9,
17.5-9.2c2.3-7.4-1.9-15.2-9.2-17.5-5.2-1.6-10.3-2.5-15.8-2.5-7.8,0-13.9,1.4-15.1,1.7-12.3,3.2-23.2,11.5-30.5,22.3-.1.1-.2.3-.3.4-.9,
1.4-1.8,2.9-2.7,4.4c0,.1-.1.2-.1.2-.8,1.5-1.5,3-2.2,4.5c0,.1-.1.1-.1.2-2.7,6.4-4.3,13.3-4.3,20.2c0,2.2.1,4.3.3,6.4.1.6.2,1.1.2,1.7.2,
1.3.3,2.6.6,3.9c0,.1,0,.1.1.2c4.1,20.1,18.2,35.5,37.3,41.1c5.2,1.6,10.7,2.5,16.4,2.5c17.5,0,33.3-10.7,41.9-18.3c7.7-6.7,12.8-11.1,
23.9-11.1h.1c6.7,0,13.6,3,19.1,8.2c5.6,5.4,8.7,12.4,8.7,19.6c0,25.1-37.5,63.1-94,63.1h-.2c-63.3-.1-115.4-51.8-116.2-115.2-.4-31.5,
11.6-61.2,33.7-83.6c22.1-22.3,51.6-34.6,83-34.6h.2c31.2,0,60.4,12.2,82.4,34.3c5.5,5.5,14.3,5.5,19.8,0s5.5-14.3,
0-19.8c-27.3-27.3-63.6-42.4-102.2-42.5h-.2c-38.9,0-75.5,15.2-102.9,42.9C56.6,101,41.8,137.7,42.3,176.8c1,78.6,65.6,142.7,
144.1,142.8h.2c69.8,0,121.9-48,122-91c0-14.9-6.1-29-17.2-39.8Z" transform="translate(-175.443902,-174.9)" fill="#24c347" 
stroke-dashoffset="1963.88" stroke-dasharray="1963.88"/></g></svg>
