<?xml version="1.0" standalone="no"?>
<!DOCTYPE svg PUBLIC "-//W3C//DTD SVG 1.1//EN" "http://www.w3.org/Graphics/SVG/1.1/DTD/svg11.dtd">
<svg xmlns="http://www.w3.org/2000/svg" xmlns:xlink="http://www.w3.org/1999/xlink" version="1.1" x="0px" y="0px" viewBox="0 0 1071.5 437.9" style="enable-background:new 0 0 1071.5 437.9;" xml:space="preserve" width="1071.5" height="437.8999938964844">
<style type="text/css">
	.st0{fill:#24C347;}
	.st1{fill:#919191;}
	.st2{fill:#232323;}
</style>
<g id="Capa_1">
</g>
<g id="Capa_2">
	<g>
		<g>
			<path class="st0" d="M334.2,233.1c-10.6-10.2-24.5-16-38.3-16h-0.1c-21.6,0-33,10-42.2,18c-7.7,6.7-12.7,11.1-23.8,11.1h-0.1     c-2.8,0-5.5-0.4-8-1.2c-8.7-2.9-15.4-10.2-17.6-19.2c-0.1-0.4-0.2-0.7-0.3-1.1c-0.1-0.4-0.1-0.9-0.2-1.3     c-0.1-0.4-0.1-0.8-0.2-1.3c-0.1-0.8-0.1-1.6-0.1-2.5c0-3.6,0.7-7,2-10.1c0.3-0.7,0.6-1.4,1-2.1c0.3-0.5,0.5-1,0.8-1.4     c0.4-0.7,0.8-1.3,1.3-1.9c4.9-6.7,12.8-11.2,21.7-11.2c2.7,0,5.4,0.4,7.9,1.2c7.4,2.3,15.2-1.9,17.4-9.2     c2.3-7.4-1.9-15.2-9.2-17.4c-5.2-1.6-10.3-2.5-15.8-2.5c-7.8,0-13.9,1.4-15,1.7c-12.3,3.2-23.2,11.5-30.5,22.3     c-0.1,0.1-0.2,0.3-0.3,0.4c-0.9,1.4-1.8,2.9-2.7,4.4c0,0.1-0.1,0.2-0.1,0.2c-0.8,1.5-1.5,3-2.2,4.5c0,0.1,0,0.1-0.1,0.2     c-2.7,6.4-4.3,13.2-4.3,20.2c0,2.2,0.1,4.3,0.3,6.3c0.1,0.6,0.2,1.1,0.2,1.7c0.2,1.3,0.3,2.6,0.6,3.9c0,0.1,0,0.1,0.1,0.2     c4.1,20.1,18.1,35.4,37.2,41c5.2,1.6,10.6,2.5,16.3,2.5c17.4,0,33.2-10.7,41.8-18.2c7.7-6.7,12.7-11.1,23.8-11.1h0.1     c6.7,0,13.6,3,19,8.2c5.6,5.4,8.7,12.4,8.7,19.6c0,25.1-37.5,62.9-93.8,62.9h-0.2c-63.1-0.1-115.1-51.7-115.9-114.9     c-0.4-31.4,11.6-61,33.6-83.4c22-22.3,51.4-34.6,82.8-34.6h0.2c31.1,0,60.3,12.2,82.2,34.2c5.4,5.4,14.3,5.5,19.7,0     c5.5-5.4,5.5-14.3,0-19.7C305,90,268.8,75,230.2,74.9H230c-38.8,0-75.3,15.2-102.6,42.8C100,145.4,85.2,182.1,85.7,221     c1,78.4,65.5,142.4,143.8,142.5h0.2c69.6,0,121.6-47.9,121.7-90.8C351.4,257.9,345.3,243.8,334.2,233.1"/>
		</g>
		<g>
			<g>
				<g>
					<g>
						<path class="st1" d="M431.3,249.6c-3.2,0-6.1-0.6-8.7-1.7c-2.6-1.2-4.8-2.7-6.6-4.7c-1.8-2-3.2-4.3-4.2-6.9        c-1-2.6-1.5-5.4-1.5-8.3c0-3,0.5-5.9,1.4-8.5c1-2.7,2.4-5,4.2-7s4-3.6,6.7-4.8c2.6-1.2,5.5-1.8,8.8-1.8c3.2,0,6.2,0.6,8.7,1.8        c2.6,1.2,4.7,2.8,6.6,4.8c1.8,2,3.2,4.3,4.1,6.9c0.9,2.6,1.4,5.4,1.4,8.2c0,0.7,0,1.4,0,2c0,0.6-0.1,1.2-0.2,1.6h-30.8        c0.2,1.7,0.5,3.2,1.1,4.4c0.6,1.3,1.4,2.4,2.4,3.3c1,0.9,2.1,1.6,3.3,2.1c1.2,0.5,2.5,0.7,3.8,0.7c2,0,3.9-0.5,5.8-1.6        c1.8-1.1,3-2.4,3.7-4.2l8.8,2.6c-1.5,3.2-3.8,5.9-7,8C439.6,248.5,435.8,249.6,431.3,249.6z M441.7,224        c-0.3-3.2-1.4-5.7-3.3-7.6c-2-1.9-4.3-2.9-7.1-2.9c-1.4,0-2.7,0.3-3.8,0.8c-1.2,0.5-2.2,1.2-3.2,2.1c-0.9,0.9-1.7,2-2.2,3.3        c-0.6,1.3-0.9,2.7-1,4.3H441.7z"/>
						<path class="st1" d="M473.5,249.6c-3.4,0-6.6-0.6-9.8-1.7c-3.2-1.1-5.9-2.7-8.2-4.8l3.8-6.8c2.4,1.8,4.8,3.2,7.1,4.2        c2.3,0.9,4.6,1.4,6.9,1.4c2,0,3.6-0.4,4.8-1.2c1.2-0.8,1.8-2,1.8-3.5c0-1.5-0.7-2.6-2.1-3.3c-1.4-0.7-3.6-1.5-6.7-2.4        c-2.6-0.8-4.8-1.5-6.6-2.2c-1.8-0.7-3.3-1.5-4.4-2.4c-1.1-0.9-1.9-1.9-2.4-3.1c-0.5-1.2-0.8-2.5-0.8-4.2        c0-2.2,0.4-4.1,1.2-5.8c0.8-1.7,1.9-3.2,3.3-4.4c1.4-1.2,3.1-2.1,5-2.8c1.9-0.6,4-1,6.2-1c3,0,5.8,0.5,8.4,1.4        c2.6,0.9,5,2.4,7.2,4.4L484,218c-2-1.6-4-2.8-5.9-3.6c-1.9-0.8-3.8-1.1-5.7-1.1c-1.7,0-3.2,0.4-4.3,1.1        c-1.2,0.8-1.8,2-1.8,3.6c0,0.8,0.1,1.4,0.4,1.9c0.3,0.5,0.7,0.9,1.3,1.3c0.6,0.4,1.4,0.7,2.4,1.1c1,0.4,2.2,0.7,3.7,1.1        c2.7,0.8,5.1,1.5,7,2.3c2,0.8,3.6,1.6,4.8,2.6c1.2,1,2.2,2.1,2.7,3.4c0.6,1.3,0.9,2.8,0.9,4.6c0,4.1-1.4,7.4-4.3,9.8        C482.4,248.4,478.5,249.6,473.5,249.6z"/>
						<path class="st1" d="M520.2,249.6c-3.1,0-5.9-0.7-8.2-2.2c-2.3-1.5-4.2-3.5-5.5-6V266h-10.2v-59.5h8.9v7.3        c1.5-2.5,3.4-4.4,5.7-5.9c2.3-1.4,5-2.1,8.1-2.1c2.7,0,5.2,0.6,7.5,1.7c2.3,1.2,4.3,2.7,5.9,4.7c1.6,2,2.9,4.3,3.9,6.9        c0.9,2.7,1.4,5.5,1.4,8.4c0,3.1-0.4,6-1.3,8.6c-0.9,2.7-2.1,5-3.6,7c-1.5,2-3.4,3.6-5.5,4.7        C525.1,249,522.8,249.6,520.2,249.6z M516.8,240.3c1.5,0,2.9-0.3,4.2-1.1c1.3-0.7,2.4-1.6,3.3-2.8c0.9-1.2,1.6-2.6,2.1-4.1        c0.5-1.6,0.8-3.2,0.8-4.8c0-1.8-0.3-3.4-0.8-5c-0.6-1.5-1.3-2.9-2.3-4c-1-1.1-2.2-2-3.5-2.7c-1.3-0.6-2.8-1-4.4-1        c-1,0-2,0.2-3,0.5c-1,0.4-2,0.8-2.8,1.5c-0.9,0.6-1.6,1.4-2.3,2.3c-0.7,0.9-1.2,1.8-1.6,2.8v9.9c0.9,2.4,2.3,4.4,4.2,6        C512.6,239.6,514.6,240.3,516.8,240.3z"/>
						<path class="st1" d="M561,249.6c-2.7,0-5.3-0.6-7.6-1.7c-2.3-1.1-4.3-2.7-6-4.7s-3-4.3-3.9-7c-0.9-2.7-1.4-5.5-1.4-8.6        c0-3.1,0.5-5.9,1.4-8.6c0.9-2.7,2.2-5,3.8-6.9c1.6-2,3.5-3.5,5.7-4.6c2.2-1.1,4.5-1.7,7.1-1.7c3,0,5.7,0.7,8,2.2        c2.3,1.5,4.2,3.5,5.5,6V207h10.2v41.8h-10.2v-6.9c-1.3,2.4-3,4.3-5.1,5.7S563.9,249.6,561,249.6z M573.5,223.2        c-0.9-2.5-2.3-4.5-4.2-6c-1.9-1.5-3.9-2.3-6.1-2.3c-1.5,0-2.9,0.4-4.2,1.1c-1.3,0.7-2.4,1.7-3.4,2.9c-0.9,1.2-1.7,2.6-2.2,4.1        c-0.5,1.5-0.8,3.1-0.8,4.8c0,1.7,0.3,3.4,0.8,4.9c0.5,1.5,1.3,2.9,2.2,4c1,1.1,2.1,2,3.5,2.7c1.3,0.6,2.8,1,4.4,1        c2.3,0,4.3-0.6,5.9-1.9c1.6-1.3,3-3,4-5.2V223.2z"/>
						<path class="st1" d="M630,248.7h-10.2V225c0-3.4-0.6-5.9-1.7-7.4c-1.1-1.6-2.7-2.3-4.6-2.3c-1,0-2.1,0.2-3.1,0.6        c-1.1,0.4-2.1,1-3,1.8c-0.9,0.8-1.8,1.7-2.6,2.8c-0.8,1.1-1.3,2.3-1.7,3.6v24.7H593v-42.3h9.2v7.8c1.5-2.7,3.6-4.8,6.4-6.3        c2.8-1.5,5.9-2.3,9.4-2.3c2.5,0,4.5,0.5,6.1,1.5c1.6,1,2.8,2.2,3.7,3.8c0.9,1.6,1.5,3.3,1.8,5.3c0.3,2,0.5,4,0.5,6.1V248.7z         M617.2,200.1c-1.2,0-2.2-0.2-3-0.6c-0.9-0.4-1.7-0.8-2.4-1.3c-0.7-0.5-1.5-0.9-2.2-1.3c-0.7-0.4-1.5-0.6-2.3-0.6        c-0.9,0-1.5,0.2-2,0.6c-0.5,0.4-0.9,0.8-1.1,1.3c-0.3,0.5-0.4,0.9-0.5,1.3c-0.1,0.4-0.1,0.6-0.1,0.7h-5.6        c0-0.5,0.2-1.3,0.5-2.5c0.3-1.2,0.8-2.3,1.5-3.5c0.7-1.2,1.6-2.2,2.7-3.1c1.1-0.9,2.6-1.3,4.2-1.3c1.2,0,2.2,0.2,3,0.6        s1.6,0.8,2.4,1.3c0.7,0.5,1.5,0.9,2.2,1.3c0.7,0.4,1.6,0.6,2.5,0.6c0.9,0,1.6-0.2,2.2-0.6c0.5-0.4,0.9-0.8,1.2-1.3        c0.3-0.5,0.5-0.9,0.5-1.4c0.1-0.4,0.1-0.7,0.1-0.8h5.6c0,0.4-0.2,1.1-0.5,2.3c-0.3,1.1-0.8,2.3-1.6,3.5        c-0.7,1.2-1.7,2.2-2.9,3.2C620.4,199.7,619,200.1,617.2,200.1z"/>
						<path class="st1" d="M657.4,249.6c-3.2,0-6.2-0.6-8.8-1.8c-2.6-1.2-4.8-2.8-6.6-4.8c-1.8-2-3.2-4.3-4.2-7        c-1-2.6-1.4-5.4-1.4-8.3c0-3,0.5-5.8,1.4-8.4c1-2.6,2.3-5,4.2-7c1.8-2,4-3.6,6.6-4.8c2.6-1.2,5.5-1.8,8.8-1.8        c3.2,0,6.2,0.6,8.7,1.8c2.6,1.2,4.7,2.8,6.6,4.8c1.8,2,3.2,4.3,4.2,7c1,2.6,1.4,5.4,1.4,8.4c0,2.9-0.5,5.7-1.4,8.3        c-1,2.6-2.3,5-4.1,7c-1.8,2-4,3.6-6.6,4.8C663.6,249,660.6,249.6,657.4,249.6z M647,227.7c0,1.9,0.3,3.6,0.8,5.1        c0.5,1.5,1.3,2.9,2.2,4c0.9,1.1,2,2,3.3,2.6c1.3,0.6,2.6,0.9,4.1,0.9c1.5,0,2.8-0.3,4.1-0.9c1.3-0.6,2.4-1.5,3.3-2.6        c0.9-1.1,1.7-2.5,2.2-4c0.5-1.6,0.8-3.3,0.8-5.2c0-1.8-0.3-3.5-0.8-5.1c-0.5-1.6-1.3-2.9-2.2-4c-0.9-1.1-2-2-3.3-2.6        c-1.3-0.6-2.6-0.9-4.1-0.9c-1.5,0-2.8,0.3-4.1,1c-1.3,0.6-2.4,1.5-3.3,2.7c-0.9,1.1-1.7,2.5-2.2,4        C647.2,224.1,647,225.8,647,227.7z"/>
						<path class="st1" d="M685.3,189.8h10.2v59h-10.2V189.8z"/>
						<path class="st1" d="M721.4,249.6c-2.7,0-5.3-0.6-7.6-1.7c-2.3-1.1-4.3-2.7-6-4.7s-3-4.3-3.9-7c-0.9-2.7-1.4-5.5-1.4-8.6        c0-3.1,0.5-5.9,1.4-8.6c0.9-2.7,2.2-5,3.8-6.9c1.6-2,3.5-3.5,5.7-4.6c2.2-1.1,4.5-1.7,7.1-1.7c3,0,5.7,0.7,8,2.2        c2.3,1.5,4.2,3.5,5.5,6V207h10.2v41.8h-10.2v-6.9c-1.3,2.4-3,4.3-5.1,5.7C726.8,248.9,724.3,249.6,721.4,249.6z M733.9,223.2        c-0.9-2.5-2.3-4.5-4.2-6c-1.9-1.5-3.9-2.3-6.1-2.3c-1.5,0-2.9,0.4-4.2,1.1c-1.3,0.7-2.4,1.7-3.4,2.9c-0.9,1.2-1.7,2.6-2.2,4.1        c-0.5,1.5-0.8,3.1-0.8,4.8c0,1.7,0.3,3.4,0.8,4.9c0.5,1.5,1.3,2.9,2.2,4c1,1.1,2.1,2,3.5,2.7c1.3,0.6,2.8,1,4.4,1        c2.3,0,4.3-0.6,5.9-1.9c1.6-1.3,3-3,4-5.2V223.2z"/>
					</g>
				</g>
			</g>
		</g>
		<g>
			<g>
				<path class="st1" d="M429.3,162.6c-2.7,0-5.3-0.6-7.6-1.7c-2.3-1.1-4.3-2.7-6-4.7c-1.7-2-3-4.3-3.9-7c-0.9-2.7-1.4-5.5-1.4-8.6      c0-3.1,0.5-5.9,1.4-8.6c0.9-2.7,2.2-5,3.8-6.9c1.6-2,3.5-3.5,5.7-4.6c2.2-1.1,4.5-1.7,7.1-1.7c3,0,5.7,0.7,8,2.2      c2.3,1.5,4.2,3.5,5.5,6V120H452v41.8h-10.2v-6.9c-1.3,2.4-3,4.3-5.1,5.7C434.6,161.9,432.2,162.6,429.3,162.6z M441.8,136.2      c-0.9-2.5-2.3-4.5-4.1-6c-1.9-1.5-3.9-2.3-6.1-2.3c-1.5,0-2.9,0.4-4.2,1.1c-1.3,0.7-2.4,1.7-3.4,2.9c-0.9,1.2-1.7,2.6-2.2,4.1      c-0.5,1.5-0.8,3.1-0.8,4.8c0,1.7,0.3,3.4,0.8,4.9c0.5,1.5,1.3,2.9,2.2,4c1,1.1,2.1,2,3.5,2.7c1.3,0.6,2.8,1,4.4,1      c2.3,0,4.3-0.6,5.9-1.9c1.6-1.3,3-3,4-5.2V136.2z"/>
				<path class="st1" d="M476.3,162.6c-3.4,0-6.6-0.6-9.8-1.7c-3.2-1.1-5.9-2.7-8.2-4.8l3.8-6.8c2.4,1.8,4.8,3.2,7.1,4.2      c2.3,0.9,4.6,1.4,6.9,1.4c2,0,3.6-0.4,4.8-1.2c1.2-0.8,1.8-2,1.8-3.5c0-1.5-0.7-2.6-2.1-3.3c-1.4-0.7-3.6-1.5-6.7-2.4      c-2.6-0.8-4.8-1.5-6.6-2.2c-1.8-0.7-3.3-1.5-4.4-2.4c-1.1-0.9-1.9-1.9-2.4-3.1c-0.5-1.2-0.8-2.5-0.8-4.2c0-2.2,0.4-4.1,1.2-5.8      c0.8-1.7,1.9-3.2,3.3-4.4c1.4-1.2,3.1-2.1,5-2.8c1.9-0.6,4-1,6.2-1c3,0,5.8,0.5,8.4,1.4c2.6,0.9,5,2.4,7.2,4.4l-4.1,6.5      c-2-1.6-4-2.8-5.9-3.6c-1.9-0.8-3.8-1.1-5.7-1.1c-1.7,0-3.2,0.4-4.3,1.1c-1.2,0.8-1.8,2-1.8,3.6c0,0.8,0.1,1.4,0.4,1.9      c0.3,0.5,0.7,0.9,1.3,1.3c0.6,0.4,1.4,0.7,2.4,1.1c1,0.4,2.2,0.7,3.7,1.1c2.7,0.8,5.1,1.5,7,2.3c2,0.8,3.6,1.6,4.8,2.6      c1.2,1,2.2,2.1,2.7,3.4c0.6,1.3,0.9,2.8,0.9,4.6c0,4.1-1.4,7.4-4.3,9.8C485.2,161.4,481.2,162.6,476.3,162.6z"/>
				<path class="st1" d="M517.5,162.6c-3.2,0-6.2-0.6-8.8-1.8s-4.8-2.8-6.6-4.8c-1.8-2-3.2-4.3-4.2-7c-1-2.6-1.4-5.4-1.4-8.3      c0-3,0.5-5.8,1.4-8.4c1-2.6,2.3-5,4.2-7c1.8-2,4-3.6,6.6-4.8c2.6-1.2,5.5-1.8,8.8-1.8c3.2,0,6.2,0.6,8.7,1.8      c2.6,1.2,4.7,2.8,6.6,4.8s3.2,4.3,4.2,7c1,2.6,1.4,5.4,1.4,8.4c0,2.9-0.5,5.7-1.4,8.3c-1,2.6-2.3,5-4.1,7c-1.8,2-4,3.6-6.6,4.8      C523.6,162,520.7,162.6,517.5,162.6z M507,140.7c0,1.9,0.3,3.6,0.8,5.1c0.5,1.5,1.3,2.9,2.2,4c0.9,1.1,2,2,3.3,2.6      c1.3,0.6,2.6,0.9,4.1,0.9c1.5,0,2.8-0.3,4.1-0.9c1.3-0.6,2.4-1.5,3.3-2.6c0.9-1.1,1.7-2.5,2.2-4c0.5-1.6,0.8-3.3,0.8-5.2      c0-1.8-0.3-3.5-0.8-5.1c-0.5-1.6-1.3-2.9-2.2-4c-0.9-1.1-2-2-3.3-2.6c-1.3-0.6-2.6-0.9-4.1-0.9c-1.5,0-2.8,0.3-4.1,1      c-1.3,0.6-2.4,1.5-3.3,2.7c-0.9,1.1-1.7,2.5-2.2,4C507.3,137.1,507,138.8,507,140.7z"/>
				<path class="st1" d="M542.7,140.6c0-3,0.5-5.8,1.4-8.4c1-2.6,2.4-5,4.2-6.9c1.8-2,4-3.6,6.6-4.8c2.6-1.2,5.5-1.8,8.8-1.8      c4.4,0,8.1,1,11.2,3c3.1,2,5.4,4.6,6.9,7.8l-10,3.2c-0.9-1.6-2-2.8-3.4-3.6c-1.4-0.8-3-1.3-4.7-1.3c-1.5,0-2.8,0.3-4.1,0.9      c-1.3,0.6-2.4,1.5-3.3,2.6c-0.9,1.1-1.7,2.4-2.2,4c-0.5,1.6-0.8,3.3-0.8,5.2s0.3,3.6,0.8,5.2c0.6,1.6,1.3,2.9,2.2,4      c0.9,1.1,2,2,3.3,2.6c1.3,0.6,2.6,0.9,4,0.9c1.8,0,3.5-0.5,5.1-1.5c1.5-1,2.6-2.2,3.2-3.6l10,3.2c-1.4,3.2-3.6,5.9-6.8,7.9      c-3.1,2-6.9,3.1-11.3,3.1c-3.2,0-6.2-0.6-8.8-1.8c-2.6-1.2-4.8-2.8-6.6-4.8c-1.8-2-3.2-4.4-4.2-7      C543.2,146.3,542.7,143.5,542.7,140.6z"/>
				<path class="st1" d="M588.2,113.5v-10.7h10.2v10.7H588.2z M588.2,161.7v-42.3h10.2v42.3H588.2z"/>
				<path class="st1" d="M624,162.6c-2.7,0-5.3-0.6-7.6-1.7c-2.3-1.1-4.3-2.7-6-4.7c-1.7-2-3-4.3-3.9-7c-0.9-2.7-1.4-5.5-1.4-8.6      c0-3.1,0.5-5.9,1.4-8.6c0.9-2.7,2.2-5,3.8-6.9c1.6-2,3.5-3.5,5.7-4.6c2.2-1.1,4.5-1.7,7.1-1.7c3,0,5.7,0.7,8,2.2      c2.3,1.5,4.2,3.5,5.5,6V120h10.2v41.8h-10.2v-6.9c-1.3,2.4-3,4.3-5.1,5.7C629.4,161.9,626.9,162.6,624,162.6z M636.5,136.2      c-0.9-2.5-2.3-4.5-4.2-6c-1.9-1.5-3.9-2.3-6.1-2.3c-1.5,0-2.9,0.4-4.2,1.1c-1.3,0.7-2.4,1.7-3.4,2.9c-0.9,1.2-1.7,2.6-2.2,4.1      c-0.5,1.5-0.8,3.1-0.8,4.8c0,1.7,0.3,3.4,0.8,4.9c0.5,1.5,1.3,2.9,2.2,4c1,1.1,2.1,2,3.5,2.7c1.3,0.6,2.8,1,4.4,1      c2.3,0,4.3-0.6,5.9-1.9c1.6-1.3,3-3,4-5.2V136.2z"/>
				<path class="st1" d="M653.4,140.6c0-3,0.5-5.8,1.4-8.4c1-2.6,2.4-5,4.2-6.9c1.8-2,4-3.6,6.6-4.8c2.6-1.2,5.5-1.8,8.8-1.8      c4.4,0,8.1,1,11.2,3c3.1,2,5.4,4.6,6.9,7.8l-10,3.2c-0.9-1.6-2-2.8-3.4-3.6c-1.4-0.8-3-1.3-4.7-1.3c-1.5,0-2.8,0.3-4.1,0.9      c-1.3,0.6-2.4,1.5-3.3,2.6c-0.9,1.1-1.7,2.4-2.2,4c-0.5,1.6-0.8,3.3-0.8,5.2s0.3,3.6,0.8,5.2c0.6,1.6,1.3,2.9,2.2,4      c0.9,1.1,2,2,3.3,2.6c1.3,0.6,2.6,0.9,4,0.9c1.8,0,3.5-0.5,5.1-1.5c1.5-1,2.6-2.2,3.2-3.6l10,3.2c-1.4,3.2-3.6,5.9-6.8,7.9      c-3.1,2-6.9,3.1-11.3,3.1c-3.2,0-6.2-0.6-8.8-1.8c-2.6-1.2-4.8-2.8-6.6-4.8c-1.8-2-3.2-4.4-4.2-7      C653.9,146.3,653.4,143.5,653.4,140.6z"/>
				<path class="st1" d="M697.4,113.5v-10.7h10.2v10.7H697.4z M697.4,161.7v-42.3h10.2v42.3H697.4z"/>
				<path class="st1" d="M735.2,162.6c-3.2,0-6.2-0.6-8.8-1.8c-2.6-1.2-4.8-2.8-6.6-4.8c-1.8-2-3.2-4.3-4.2-7      c-1-2.6-1.4-5.4-1.4-8.3c0-3,0.5-5.8,1.4-8.4c1-2.6,2.3-5,4.2-7c1.8-2,4-3.6,6.6-4.8c2.6-1.2,5.5-1.8,8.8-1.8      c3.2,0,6.2,0.6,8.7,1.8c2.6,1.2,4.7,2.8,6.6,4.8c1.8,2,3.2,4.3,4.2,7c1,2.6,1.4,5.4,1.4,8.4c0,2.9-0.5,5.7-1.4,8.3      c-1,2.6-2.3,5-4.1,7c-1.8,2-4,3.6-6.6,4.8C741.4,162,738.5,162.6,735.2,162.6z M724.8,140.7c0,1.9,0.3,3.6,0.8,5.1      c0.5,1.5,1.3,2.9,2.2,4c0.9,1.1,2,2,3.3,2.6c1.3,0.6,2.6,0.9,4.1,0.9s2.8-0.3,4.1-0.9c1.3-0.6,2.4-1.5,3.3-2.6      c0.9-1.1,1.7-2.5,2.2-4c0.5-1.6,0.8-3.3,0.8-5.2c0-1.8-0.3-3.5-0.8-5.1c-0.5-1.6-1.3-2.9-2.2-4c-0.9-1.1-2-2-3.3-2.6      c-1.3-0.6-2.6-0.9-4.1-0.9s-2.8,0.3-4.1,1c-1.3,0.6-2.4,1.5-3.3,2.7c-0.9,1.1-1.7,2.5-2.2,4      C725.1,137.1,724.8,138.8,724.8,140.7z M737.8,114.5l-6.6-2.1l4.1-9.6h9.5L737.8,114.5z"/>
				<path class="st1" d="M800,161.7h-10.2V138c0-3.4-0.6-5.9-1.7-7.4c-1.1-1.6-2.7-2.3-4.6-2.3c-1,0-2.1,0.2-3.1,0.6      c-1.1,0.4-2.1,1-3,1.8c-0.9,0.8-1.8,1.7-2.6,2.8c-0.8,1.1-1.3,2.3-1.7,3.6v24.7H763v-42.3h9.2v7.8c1.5-2.7,3.6-4.8,6.4-6.3      c2.8-1.5,5.9-2.3,9.4-2.3c2.5,0,4.5,0.5,6.1,1.5s2.8,2.2,3.7,3.8c0.9,1.6,1.5,3.3,1.8,5.3c0.3,2,0.5,4,0.5,6.1V161.7z"/>
			</g>
		</g>
		<g>
			<path class="st2" d="M410,314.5c0-3,0.5-5.8,1.5-8.5c1-2.7,2.4-5,4.2-7c1.8-2,4.1-3.6,6.7-4.8c2.6-1.2,5.6-1.8,8.8-1.8     c4.4,0,8.2,1,11.3,3c3.1,2,5.4,4.6,7,7.9l-10.1,3.3c-0.9-1.6-2-2.8-3.5-3.6c-1.4-0.8-3-1.3-4.8-1.3c-1.5,0-2.9,0.3-4.1,0.9     c-1.3,0.6-2.4,1.5-3.3,2.6c-0.9,1.1-1.7,2.5-2.2,4c-0.5,1.6-0.8,3.3-0.8,5.2c0,1.9,0.3,3.6,0.8,5.2c0.6,1.6,1.3,2.9,2.3,4.1     c0.9,1.1,2.1,2,3.3,2.6c1.3,0.6,2.6,0.9,4.1,0.9c1.8,0,3.5-0.5,5.1-1.5c1.6-1,2.7-2.2,3.3-3.6l10.1,3.3c-1.4,3.3-3.7,5.9-6.8,8     c-3.2,2.1-7,3.1-11.4,3.1c-3.3,0-6.2-0.6-8.8-1.8c-2.6-1.2-4.8-2.8-6.7-4.8c-1.8-2-3.3-4.4-4.3-7.1     C410.5,320.3,410,317.5,410,314.5z"/>
			<path class="st2" d="M474.1,336.7c-3.3,0-6.2-0.6-8.8-1.8c-2.6-1.2-4.8-2.8-6.6-4.8c-1.8-2-3.2-4.4-4.2-7c-1-2.7-1.5-5.5-1.5-8.4     c0-3,0.5-5.8,1.5-8.5c1-2.7,2.4-5,4.2-7c1.8-2,4-3.7,6.6-4.8c2.6-1.2,5.6-1.8,8.8-1.8c3.3,0,6.2,0.6,8.8,1.8     c2.6,1.2,4.8,2.8,6.6,4.8c1.8,2,3.2,4.4,4.2,7c1,2.7,1.5,5.5,1.5,8.5c0,2.9-0.5,5.7-1.5,8.4c-1,2.7-2.4,5-4.1,7     c-1.8,2-4,3.7-6.6,4.8C480.3,336.1,477.4,336.7,474.1,336.7z M463.6,314.6c0,1.9,0.3,3.6,0.8,5.2s1.3,2.9,2.2,4     c0.9,1.1,2.1,2,3.3,2.6c1.3,0.6,2.7,0.9,4.1,0.9c1.5,0,2.9-0.3,4.1-0.9c1.3-0.6,2.4-1.5,3.3-2.6c0.9-1.1,1.7-2.5,2.2-4.1     c0.5-1.6,0.8-3.3,0.8-5.2c0-1.8-0.3-3.6-0.8-5.1c-0.5-1.6-1.3-2.9-2.2-4.1c-0.9-1.1-2.1-2-3.3-2.6c-1.3-0.6-2.7-0.9-4.1-0.9     c-1.5,0-2.9,0.3-4.1,1c-1.3,0.7-2.4,1.5-3.3,2.7c-0.9,1.1-1.7,2.5-2.2,4.1C463.8,311.1,463.6,312.8,463.6,314.6z"/>
			<path class="st2" d="M539.5,335.9h-10.3v-23.9c0-3.4-0.6-5.9-1.7-7.5c-1.1-1.6-2.7-2.4-4.7-2.4c-1,0-2.1,0.2-3.1,0.7     c-1.1,0.4-2.1,1-3,1.8c-0.9,0.8-1.8,1.7-2.6,2.8c-0.8,1.1-1.3,2.3-1.7,3.6v24.9h-10.3v-42.7h9.3v7.9c1.5-2.7,3.6-4.8,6.5-6.4     c2.8-1.5,6-2.3,9.5-2.3c2.5,0,4.6,0.5,6.1,1.5c1.6,1,2.8,2.3,3.7,3.8c0.9,1.6,1.5,3.4,1.8,5.4c0.3,2,0.5,4,0.5,6.1V335.9z"/>
			<path class="st2" d="M551.4,335.9v-32.8h-6v-9.9h6v-13.8H562v13.8h9.3v9.9H562v32.8H551.4z"/>
			<path class="st2" d="M601.1,302.7c-3.1,0.1-5.9,0.7-8.4,1.9s-4.2,3.1-5.3,5.5v25.8h-10.3v-42.7h9.4v9.1c0.7-1.5,1.6-2.8,2.5-3.9     c1-1.2,2-2.2,3.1-3.1c1.1-0.9,2.3-1.5,3.4-2c1.2-0.5,2.3-0.7,3.3-0.7c0.6,0,1,0,1.3,0c0.3,0,0.6,0,0.8,0.1V302.7z"/>
			<path class="st2" d="M621.5,336.7c-2.8,0-5.3-0.6-7.6-1.7c-2.3-1.1-4.3-2.7-6-4.7c-1.7-2-3-4.4-4-7c-0.9-2.7-1.4-5.6-1.4-8.7     s0.5-6,1.4-8.7c0.9-2.7,2.2-5,3.8-7c1.6-2,3.5-3.5,5.7-4.7c2.2-1.1,4.6-1.7,7.1-1.7c3,0,5.7,0.7,8.1,2.2c2.4,1.5,4.2,3.5,5.5,6.1     v-7h10.3v42.1h-10.3V329c-1.3,2.4-3,4.3-5.1,5.7C626.9,336,624.4,336.7,621.5,336.7z M634.1,310.1c-0.9-2.5-2.3-4.5-4.2-6.1     c-1.9-1.5-3.9-2.3-6.2-2.3c-1.5,0-3,0.4-4.3,1.1c-1.3,0.7-2.4,1.7-3.4,2.9c-0.9,1.2-1.7,2.6-2.2,4.2c-0.5,1.5-0.8,3.2-0.8,4.8     c0,1.7,0.3,3.4,0.8,4.9s1.3,2.9,2.3,4c1,1.1,2.1,2,3.5,2.7c1.4,0.7,2.8,1,4.4,1c2.3,0,4.3-0.7,6-2s3-3,4-5.2V310.1z"/>
			<path class="st2" d="M690.7,336.7c-3.3,0-6.2-0.6-8.8-1.8c-2.6-1.2-4.8-2.8-6.6-4.8c-1.8-2-3.2-4.4-4.2-7c-1-2.7-1.5-5.5-1.5-8.4     c0-3,0.5-5.8,1.5-8.5c1-2.7,2.4-5,4.2-7c1.8-2,4-3.7,6.6-4.8c2.6-1.2,5.6-1.8,8.8-1.8c3.3,0,6.2,0.6,8.8,1.8     c2.6,1.2,4.8,2.8,6.6,4.8c1.8,2,3.2,4.4,4.2,7c1,2.7,1.5,5.5,1.5,8.5c0,2.9-0.5,5.7-1.5,8.4c-1,2.7-2.4,5-4.1,7     c-1.8,2-4,3.7-6.6,4.8C696.9,336.1,694,336.7,690.7,336.7z M680.2,314.6c0,1.9,0.3,3.6,0.8,5.2s1.3,2.9,2.2,4     c0.9,1.1,2.1,2,3.3,2.6c1.3,0.6,2.7,0.9,4.1,0.9c1.5,0,2.9-0.3,4.1-0.9c1.3-0.6,2.4-1.5,3.3-2.6c0.9-1.1,1.7-2.5,2.2-4.1     c0.5-1.6,0.8-3.3,0.8-5.2c0-1.8-0.3-3.6-0.8-5.1c-0.5-1.6-1.3-2.9-2.2-4.1c-0.9-1.1-2.1-2-3.3-2.6c-1.3-0.6-2.7-0.9-4.1-0.9     c-1.5,0-2.9,0.3-4.1,1c-1.3,0.7-2.4,1.5-3.3,2.7c-0.9,1.1-1.7,2.5-2.2,4.1C680.4,311.1,680.2,312.8,680.2,314.6z"/>
			<path class="st2" d="M734.5,314.5c0-3,0.5-5.8,1.5-8.5c1-2.7,2.4-5,4.2-7c1.8-2,4.1-3.6,6.7-4.8c2.6-1.2,5.6-1.8,8.8-1.8     c4.4,0,8.2,1,11.3,3c3.1,2,5.4,4.6,7,7.9l-10.1,3.3c-0.9-1.6-2-2.8-3.5-3.6c-1.4-0.8-3-1.3-4.8-1.3c-1.5,0-2.9,0.3-4.1,0.9     c-1.3,0.6-2.4,1.5-3.3,2.6c-0.9,1.1-1.7,2.5-2.2,4c-0.5,1.6-0.8,3.3-0.8,5.2c0,1.9,0.3,3.6,0.8,5.2c0.6,1.6,1.3,2.9,2.3,4.1     c0.9,1.1,2.1,2,3.3,2.6c1.3,0.6,2.6,0.9,4.1,0.9c1.8,0,3.5-0.5,5.1-1.5c1.6-1,2.7-2.2,3.3-3.6l10.1,3.3c-1.4,3.3-3.7,5.9-6.8,8     c-3.2,2.1-7,3.1-11.4,3.1c-3.3,0-6.2-0.6-8.8-1.8c-2.6-1.2-4.8-2.8-6.7-4.8c-1.8-2-3.3-4.4-4.3-7.1     C735,320.3,734.5,317.5,734.5,314.5z"/>
			<path class="st2" d="M796.5,336.7c-2.8,0-5.3-0.6-7.6-1.7c-2.3-1.1-4.3-2.7-6-4.7c-1.7-2-3-4.4-4-7c-0.9-2.7-1.4-5.6-1.4-8.7     s0.5-6,1.4-8.7c0.9-2.7,2.2-5,3.8-7c1.6-2,3.5-3.5,5.7-4.7c2.2-1.1,4.6-1.7,7.1-1.7c3,0,5.7,0.7,8.1,2.2c2.4,1.5,4.2,3.5,5.5,6.1     v-7h10.3v42.1h-10.3V329c-1.3,2.4-3,4.3-5.1,5.7C801.9,336,799.5,336.7,796.5,336.7z M809.1,310.1c-0.9-2.5-2.3-4.5-4.2-6.1     c-1.9-1.5-3.9-2.3-6.2-2.3c-1.5,0-3,0.4-4.3,1.1c-1.3,0.7-2.4,1.7-3.4,2.9c-0.9,1.2-1.7,2.6-2.2,4.2c-0.5,1.5-0.8,3.2-0.8,4.8     c0,1.7,0.3,3.4,0.8,4.9c0.5,1.5,1.3,2.9,2.3,4c1,1.1,2.1,2,3.5,2.7c1.4,0.7,2.8,1,4.4,1c2.3,0,4.3-0.7,6-2c1.7-1.3,3-3,4-5.2     V310.1z"/>
			<path class="st2" d="M866.1,335.9h-10.3v-23.9c0-3.4-0.6-5.9-1.7-7.5s-2.7-2.4-4.7-2.4c-1,0-2.1,0.2-3.1,0.7     c-1.1,0.4-2.1,1-3,1.8c-0.9,0.8-1.8,1.7-2.6,2.8c-0.8,1.1-1.3,2.3-1.7,3.6v24.9h-10.3v-42.7h9.3v7.9c1.5-2.7,3.6-4.8,6.5-6.4     c2.8-1.5,6-2.3,9.5-2.3c2.5,0,4.6,0.5,6.1,1.5c1.6,1,2.8,2.3,3.7,3.8c0.9,1.6,1.5,3.4,1.8,5.4c0.3,2,0.5,4,0.5,6.1V335.9z"/>
			<path class="st2" d="M872.6,314.5c0-3,0.5-5.8,1.5-8.5c1-2.7,2.4-5,4.2-7c1.8-2,4.1-3.6,6.7-4.8c2.6-1.2,5.6-1.8,8.8-1.8     c4.4,0,8.2,1,11.3,3c3.1,2,5.4,4.6,7,7.9l-10.1,3.3c-0.9-1.6-2-2.8-3.5-3.6c-1.4-0.8-3-1.3-4.8-1.3c-1.5,0-2.9,0.3-4.1,0.9     c-1.3,0.6-2.4,1.5-3.3,2.6c-0.9,1.1-1.7,2.5-2.2,4c-0.5,1.6-0.8,3.3-0.8,5.2c0,1.9,0.3,3.6,0.8,5.2c0.6,1.6,1.3,2.9,2.3,4.1     c0.9,1.1,2.1,2,3.3,2.6c1.3,0.6,2.6,0.9,4.1,0.9c1.8,0,3.5-0.5,5.1-1.5c1.6-1,2.7-2.2,3.3-3.6l10.1,3.3c-1.4,3.3-3.7,5.9-6.8,8     c-3.2,2.1-7,3.1-11.4,3.1c-3.3,0-6.2-0.6-8.8-1.8c-2.6-1.2-4.8-2.8-6.7-4.8c-1.8-2-3.3-4.4-4.3-7.1     C873.1,320.3,872.6,317.5,872.6,314.5z"/>
			<path class="st2" d="M942.4,302.7c-3.1,0.1-5.9,0.7-8.4,1.9s-4.2,3.1-5.3,5.5v25.8h-10.3v-42.7h9.4v9.1c0.7-1.5,1.6-2.8,2.5-3.9     c1-1.2,2-2.2,3.1-3.1c1.1-0.9,2.3-1.5,3.4-2c1.2-0.5,2.3-0.7,3.3-0.7c0.6,0,1,0,1.3,0c0.3,0,0.6,0,0.8,0.1V302.7z"/>
			<path class="st2" d="M964.7,336.7c-3.3,0-6.2-0.6-8.8-1.8c-2.6-1.2-4.8-2.8-6.6-4.8c-1.8-2-3.2-4.4-4.2-7c-1-2.7-1.5-5.5-1.5-8.4     c0-3,0.5-5.8,1.5-8.5c1-2.7,2.4-5,4.2-7c1.8-2,4-3.7,6.6-4.8c2.6-1.2,5.6-1.8,8.8-1.8c3.3,0,6.2,0.6,8.8,1.8     c2.6,1.2,4.8,2.8,6.6,4.8c1.8,2,3.2,4.4,4.2,7c1,2.7,1.5,5.5,1.5,8.5c0,2.9-0.5,5.7-1.5,8.4c-1,2.7-2.4,5-4.1,7     c-1.8,2-4,3.7-6.6,4.8C971,336.1,968,336.7,964.7,336.7z M954.2,314.6c0,1.9,0.3,3.6,0.8,5.2s1.3,2.9,2.2,4     c0.9,1.1,2.1,2,3.3,2.6c1.3,0.6,2.7,0.9,4.1,0.9c1.5,0,2.9-0.3,4.1-0.9c1.3-0.6,2.4-1.5,3.3-2.6c0.9-1.1,1.7-2.5,2.2-4.1     c0.5-1.6,0.8-3.3,0.8-5.2c0-1.8-0.3-3.6-0.8-5.1c-0.5-1.6-1.3-2.9-2.2-4.1c-0.9-1.1-2.1-2-3.3-2.6c-1.3-0.6-2.7-0.9-4.1-0.9     c-1.5,0-2.9,0.3-4.1,1c-1.3,0.7-2.4,1.5-3.3,2.7c-0.9,1.1-1.7,2.5-2.2,4.1C954.5,311.1,954.2,312.8,954.2,314.6z"/>
		</g>
	</g>
</g>
</svg>