<svg xmlns="http://www.w3.org/2000/svg" viewBox="0 0 922.95 289.34"><defs><style>.cls-1{fill:#232323;}.cls-2{fill:#24c347;}.cls-3{fill:#919191;}</style></defs><g id="Capa_2" data-name="Capa 2"><path class="cls-1" d="M809.54,288.29,803,286.18l4.12-9.63h9.54Z" transform="translate(-74.28 -74.28)"/><path class="cls-2" d="M323.36,232.85c-10.58-10.2-24.58-16.06-38.43-16.08h-.11c-21.63,0-33.09,10-42.29,18-7.68,6.7-12.75,11.14-23.87,11.14h-.06a28.35,28.35,0,0,1-8-1.16,26.92,26.92,0,0,1-17.64-19.25c-.09-.37-.18-.74-.26-1.12s-.14-.87-.2-1.31-.12-.86-.17-1.29c-.08-.82-.13-1.65-.13-2.49a26.67,26.67,0,0,1,2-10.13c.31-.73.63-1.44,1-2.14.26-.5.53-1,.82-1.45.39-.67.82-1.31,1.27-1.94a26.83,26.83,0,0,1,29.7-10A14,14,0,0,0,235.21,167a52.43,52.43,0,0,0-15.83-2.54,65.83,65.83,0,0,0-15,1.68c-12.35,3.18-23.22,11.54-30.53,22.31-.1.14-.2.27-.29.41-.95,1.42-1.84,2.87-2.66,4.37l-.12.25c-.8,1.47-1.52,3-2.18,4.51,0,.06-.05.12-.08.19a51.72,51.72,0,0,0-4.33,20.2,63.43,63.43,0,0,0,.34,6.37c.05.57.16,1.13.24,1.7.17,1.32.34,2.63.59,3.91l.06.22c4.07,20.11,18.19,35.53,37.28,41.09a54.6,54.6,0,0,0,16.36,2.5c17.45,0,33.26-10.71,41.91-18.27,7.68-6.71,12.76-11.15,23.91-11.15h.06c6.69,0,13.64,3,19.07,8.25a27.22,27.22,0,0,1,8.7,19.62c0,25.13-37.55,63.07-94,63.07h-.18c-63.29-.1-115.42-51.78-116.21-115.22a116.73,116.73,0,0,1,116.7-118.21h.18a116,116,0,0,1,82.44,34.27,14,14,0,0,0,19.79-19.75A143.76,143.76,0,0,0,219.16,74.28h-.22A144.67,144.67,0,0,0,74.29,220.79c1,78.64,65.63,142.71,144.11,142.82h.23c69.75,0,121.93-48,122-91a54.9,54.9,0,0,0-17.26-39.78" transform="translate(-74.28 -74.28)"/><path class="cls-1" d="M399.68,314.44a24.51,24.51,0,0,1,1.45-8.42,20.74,20.74,0,0,1,4.2-7,20.5,20.5,0,0,1,6.65-4.78,20.81,20.81,0,0,1,8.78-1.78,20.17,20.17,0,0,1,11.18,3,18.72,18.72,0,0,1,6.91,7.86l-10,3.24a9.38,9.38,0,0,0-12.29-3.93,10.17,10.17,0,0,0-3.32,2.59,12.14,12.14,0,0,0-2.22,4,16.08,16.08,0,0,0-.8,5.18,15.25,15.25,0,0,0,.84,5.18,13.2,13.2,0,0,0,2.25,4.05,9.88,9.88,0,0,0,3.32,2.63,9,9,0,0,0,4.05.94,9.44,9.44,0,0,0,5.08-1.46,8,8,0,0,0,3.24-3.56l10,3.23a17.53,17.53,0,0,1-6.8,7.94,20.45,20.45,0,0,1-11.38,3.08,21,21,0,0,1-8.78-1.78,20.28,20.28,0,0,1-6.64-4.82,21.58,21.58,0,0,1-4.24-7.05A23.9,23.9,0,0,1,399.68,314.44Z" transform="translate(-74.28 -74.28)"/><path class="cls-1" d="M463.74,336.47a21,21,0,0,1-8.78-1.78,19.8,19.8,0,0,1-6.6-4.82,21.34,21.34,0,0,1-4.16-7,24,24,0,0,1-1.45-8.34,24.27,24.27,0,0,1,1.45-8.42,21.3,21.3,0,0,1,4.16-7,19.67,19.67,0,0,1,6.6-4.82,20.87,20.87,0,0,1,8.78-1.78,20.6,20.6,0,0,1,8.75,1.78,19.71,19.71,0,0,1,6.56,4.82,21.3,21.3,0,0,1,4.16,7,24.27,24.27,0,0,1,1.45,8.42,24,24,0,0,1-1.45,8.34,21.77,21.77,0,0,1-4.12,7,19.39,19.39,0,0,1-6.57,4.82A21,21,0,0,1,463.74,336.47Zm-10.46-22a15.77,15.77,0,0,0,.8,5.15,12.92,12.92,0,0,0,2.22,4,9.88,9.88,0,0,0,3.32,2.63,9.52,9.52,0,0,0,8.25,0,9.88,9.88,0,0,0,3.32-2.63,12.53,12.53,0,0,0,2.21-4.05,15.77,15.77,0,0,0,.8-5.18,15.58,15.58,0,0,0-.8-5.1,12.74,12.74,0,0,0-2.21-4,10,10,0,0,0-3.32-2.63,9.33,9.33,0,0,0-4.13-.93,8.93,8.93,0,0,0-4.12,1,10.52,10.52,0,0,0-3.32,2.67,13,13,0,0,0-2.22,4.05A15.85,15.85,0,0,0,453.28,314.52Z" transform="translate(-74.28 -74.28)"/><path class="cls-1" d="M528.72,335.66H518.49V311.85q0-5.1-1.68-7.45a5.42,5.42,0,0,0-4.66-2.35,8.36,8.36,0,0,0-3.13.65,11.31,11.31,0,0,0-3,1.82,14.34,14.34,0,0,0-2.56,2.8,11,11,0,0,0-1.68,3.56v24.78H491.54V293.23h9.23v7.85a15.56,15.56,0,0,1,6.42-6.31,19.5,19.5,0,0,1,9.47-2.27,11.39,11.39,0,0,1,6.1,1.46,10.28,10.28,0,0,1,3.67,3.8,16.7,16.7,0,0,1,1.79,5.35,37.1,37.1,0,0,1,.5,6.07Z" transform="translate(-74.28 -74.28)"/><path class="cls-1" d="M540.94,335.66V303h-6v-9.79h6V279.46h10.53v13.77h9.24V303h-9.24v32.64Z" transform="translate(-74.28 -74.28)"/><path class="cls-1" d="M590.41,302.62a19.22,19.22,0,0,0-8.32,1.9,10.87,10.87,0,0,0-5.27,5.47v25.67H566.59V293.23H576v9.07a20,20,0,0,1,2.52-3.93,20.36,20.36,0,0,1,3.13-3,14.56,14.56,0,0,1,3.4-2,8.9,8.9,0,0,1,3.32-.69h1.26a4.09,4.09,0,0,1,.8.08Z" transform="translate(-74.28 -74.28)"/><path class="cls-1" d="M612.63,336.47a17,17,0,0,1-7.59-1.7,18.27,18.27,0,0,1-6-4.7,22.24,22.24,0,0,1-3.93-7,25.86,25.86,0,0,1-1.41-8.63,26.58,26.58,0,0,1,1.37-8.62,22.77,22.77,0,0,1,3.78-7,17.77,17.77,0,0,1,5.69-4.65,15.12,15.12,0,0,1,7.1-1.7,14.7,14.7,0,0,1,8,2.22,15.57,15.57,0,0,1,5.5,6v-7h10.23v41.87H625.16v-6.89a15.5,15.5,0,0,1-5.08,5.67A13.31,13.31,0,0,1,612.63,336.47Zm12.53-26.4a13.94,13.94,0,0,0-4.17-6,9.38,9.38,0,0,0-6.14-2.31,8.5,8.5,0,0,0-4.24,1.09,11,11,0,0,0-3.36,2.92,13.7,13.7,0,0,0-2.18,4.13,15.18,15.18,0,0,0-.76,4.81,14.94,14.94,0,0,0,.8,4.9,12.53,12.53,0,0,0,2.25,4,10.33,10.33,0,0,0,3.48,2.67,10,10,0,0,0,4.39,1,9.31,9.31,0,0,0,5.92-1.95,14.05,14.05,0,0,0,4-5.18Z" transform="translate(-74.28 -74.28)"/><path class="cls-1" d="M681.5,336.47a21.12,21.12,0,0,1-8.7-1.74,19.82,19.82,0,0,1-6.64-4.74,21.11,21.11,0,0,1-4.24-7,23.65,23.65,0,0,1-1.49-8.35,24.83,24.83,0,0,1,1.45-8.54,21.1,21.1,0,0,1,4.2-7,20,20,0,0,1,6.68-4.82,21.09,21.09,0,0,1,8.82-1.78,20.56,20.56,0,0,1,8.74,1.78,20.17,20.17,0,0,1,6.57,4.78,20.39,20.39,0,0,1,4.12,7,24.51,24.51,0,0,1,1.41,8.26c0,.7,0,1.38,0,2a9.25,9.25,0,0,1-.19,1.62H671.27a13.17,13.17,0,0,0,1.15,4.46,11.16,11.16,0,0,0,2.36,3.32,10.33,10.33,0,0,0,7.11,2.83,11.31,11.31,0,0,0,5.76-1.58,8.14,8.14,0,0,0,3.7-4.17l8.78,2.59a18.52,18.52,0,0,1-7.06,8A20.91,20.91,0,0,1,681.5,336.47Zm10.39-25.59a11.57,11.57,0,0,0-3.32-7.65,10.21,10.21,0,0,0-11-2.11,10.11,10.11,0,0,0-3.17,2.15,11.11,11.11,0,0,0-2.25,3.32,12.07,12.07,0,0,0-1,4.29Z" transform="translate(-74.28 -74.28)"/><path class="cls-1" d="M708.84,276.55h10.23v59.11H708.84Z" transform="translate(-74.28 -74.28)"/><path class="cls-1" d="M744.42,314.44a24.27,24.27,0,0,1,1.45-8.42,20.58,20.58,0,0,1,4.2-7,20.36,20.36,0,0,1,6.64-4.78,20.84,20.84,0,0,1,8.78-1.78,20.18,20.18,0,0,1,11.19,3,18.78,18.78,0,0,1,6.91,7.86l-10,3.24a9.38,9.38,0,0,0-12.29-3.93,10.27,10.27,0,0,0-3.32,2.59,12.12,12.12,0,0,0-2.21,4,15.81,15.81,0,0,0-.81,5.18,15.25,15.25,0,0,0,.84,5.18,13,13,0,0,0,2.26,4.05,9.88,9.88,0,0,0,3.32,2.63,9,9,0,0,0,4,.94,9.39,9.39,0,0,0,5.08-1.46,8,8,0,0,0,3.25-3.56l10,3.23a17.47,17.47,0,0,1-6.8,7.94,20.39,20.39,0,0,1-11.37,3.08,21,21,0,0,1-8.78-1.78,20.32,20.32,0,0,1-6.65-4.82,21.56,21.56,0,0,1-4.23-7.05A23.67,23.67,0,0,1,744.42,314.44Z" transform="translate(-74.28 -74.28)"/><path class="cls-1" d="M806.49,336.47a17,17,0,0,1-7.59-1.7,18.27,18.27,0,0,1-6-4.7,22.24,22.24,0,0,1-3.93-7,25.86,25.86,0,0,1-1.41-8.63,26.58,26.58,0,0,1,1.37-8.62,22.77,22.77,0,0,1,3.78-7,17.88,17.88,0,0,1,5.69-4.65,15.15,15.15,0,0,1,7.1-1.7,14.7,14.7,0,0,1,8,2.22,15.57,15.57,0,0,1,5.5,6v-7h10.23v41.87H819v-6.89a15.5,15.5,0,0,1-5.08,5.67A13.28,13.28,0,0,1,806.49,336.47ZM819,310.07a13.94,13.94,0,0,0-4.17-6,9.38,9.38,0,0,0-6.14-2.31,8.5,8.5,0,0,0-4.24,1.09,11,11,0,0,0-3.36,2.92,13.7,13.7,0,0,0-2.18,4.13,15.47,15.47,0,0,0-.76,4.81,14.94,14.94,0,0,0,.8,4.9,12.36,12.36,0,0,0,2.26,4,10.2,10.2,0,0,0,3.47,2.67,10,10,0,0,0,4.39,1,9.31,9.31,0,0,0,5.92-1.95,14.05,14.05,0,0,0,4-5.18Z" transform="translate(-74.28 -74.28)"/><path class="cls-1" d="M875.67,335.66H865.44V311.85q0-5.1-1.68-7.45a5.42,5.42,0,0,0-4.66-2.35,8.36,8.36,0,0,0-3.13.65,11.52,11.52,0,0,0-3,1.82,14.62,14.62,0,0,0-2.55,2.8,11,11,0,0,0-1.68,3.56v24.78H838.49V293.23h9.23v7.85a15.56,15.56,0,0,1,6.42-6.31,19.5,19.5,0,0,1,9.47-2.27,11.39,11.39,0,0,1,6.1,1.46,10.28,10.28,0,0,1,3.67,3.8,16.7,16.7,0,0,1,1.79,5.35,37.1,37.1,0,0,1,.5,6.07Z" transform="translate(-74.28 -74.28)"/><path class="cls-1" d="M882.08,314.44a24.51,24.51,0,0,1,1.45-8.42,20.74,20.74,0,0,1,4.2-7,20.5,20.5,0,0,1,6.65-4.78,20.81,20.81,0,0,1,8.78-1.78,20.17,20.17,0,0,1,11.18,3,18.72,18.72,0,0,1,6.91,7.86l-10,3.24A9.38,9.38,0,0,0,899,302.66a10.17,10.17,0,0,0-3.32,2.59,12.14,12.14,0,0,0-2.22,4,16.08,16.08,0,0,0-.8,5.18,15.25,15.25,0,0,0,.84,5.18,13.2,13.2,0,0,0,2.25,4.05A9.88,9.88,0,0,0,899,326.3a9,9,0,0,0,4.05.94,9.41,9.41,0,0,0,5.08-1.46,8,8,0,0,0,3.24-3.56l10,3.23a17.53,17.53,0,0,1-6.8,7.94,20.45,20.45,0,0,1-11.38,3.08,21,21,0,0,1-8.78-1.78,20.28,20.28,0,0,1-6.64-4.82,21.76,21.76,0,0,1-4.24-7.05A23.9,23.9,0,0,1,882.08,314.44Z" transform="translate(-74.28 -74.28)"/><path class="cls-1" d="M946.22,336.47a21.06,21.06,0,0,1-8.7-1.74,20,20,0,0,1-6.65-4.74,21.25,21.25,0,0,1-4.23-7,23.43,23.43,0,0,1-1.49-8.35,24.83,24.83,0,0,1,1.45-8.54,20.78,20.78,0,0,1,4.2-7,20,20,0,0,1,6.68-4.82,21.09,21.09,0,0,1,8.82-1.78,20.59,20.59,0,0,1,8.74,1.78,20.17,20.17,0,0,1,6.57,4.78,20.55,20.55,0,0,1,4.12,7,24.51,24.51,0,0,1,1.41,8.26c0,.7,0,1.38,0,2a8.38,8.38,0,0,1-.19,1.62H936a13.17,13.17,0,0,0,1.14,4.46,11.19,11.19,0,0,0,2.37,3.32,10.1,10.1,0,0,0,3.28,2.1,10.21,10.21,0,0,0,3.82.73,11.31,11.31,0,0,0,5.77-1.58,8.18,8.18,0,0,0,3.7-4.17l8.78,2.59a18.58,18.58,0,0,1-7.06,8A20.91,20.91,0,0,1,946.22,336.47Zm10.39-25.59a11.58,11.58,0,0,0-3.33-7.65,9.82,9.82,0,0,0-7.14-2.88,9.7,9.7,0,0,0-3.85.77,10.11,10.11,0,0,0-3.17,2.15,10.93,10.93,0,0,0-2.25,3.32,12.07,12.07,0,0,0-1,4.29Z" transform="translate(-74.28 -74.28)"/><path class="cls-1" d="M997.23,302.62a19.26,19.26,0,0,0-8.33,1.9,10.87,10.87,0,0,0-5.27,5.47v25.67H973.4V293.23h9.39v9.07a19.58,19.58,0,0,1,5.66-7,14.3,14.3,0,0,1,3.39-2,8.94,8.94,0,0,1,3.32-.69h1.26a4.28,4.28,0,0,1,.81.08Z" transform="translate(-74.28 -74.28)"/><path class="cls-3" d="M420.76,249.37a21.14,21.14,0,0,1-8.71-1.74,19.92,19.92,0,0,1-6.64-4.74,21.07,21.07,0,0,1-4.24-7,23.6,23.6,0,0,1-1.49-8.34,25.07,25.07,0,0,1,1.45-8.54,21.15,21.15,0,0,1,4.2-7.05,20.23,20.23,0,0,1,6.68-4.82,21.28,21.28,0,0,1,8.82-1.78,20.79,20.79,0,0,1,8.75,1.78,20.13,20.13,0,0,1,6.56,4.78,20.49,20.49,0,0,1,4.12,7,24.27,24.27,0,0,1,1.42,8.26c0,.71,0,1.38,0,2a9.25,9.25,0,0,1-.19,1.62H410.53a13.11,13.11,0,0,0,1.14,4.45A10.89,10.89,0,0,0,414,238.6a10.19,10.19,0,0,0,3.28,2.11,10.34,10.34,0,0,0,3.82.73,11.28,11.28,0,0,0,5.76-1.58,8.24,8.24,0,0,0,3.71-4.17l8.78,2.59a18.46,18.46,0,0,1-7.07,8A20.88,20.88,0,0,1,420.76,249.37Zm10.38-25.59a11.57,11.57,0,0,0-3.32-7.65,9.86,9.86,0,0,0-7.14-2.87,9.61,9.61,0,0,0-3.86.77,9.87,9.87,0,0,0-3.16,2.14,11.26,11.26,0,0,0-2.26,3.32,12.39,12.39,0,0,0-1,4.29Z" transform="translate(-74.28 -74.28)"/><path class="cls-3" d="M463.06,249.37a29.41,29.41,0,0,1-9.85-1.7,23.54,23.54,0,0,1-8.25-4.86l3.82-6.8a31.85,31.85,0,0,0,7.14,4.17,18.07,18.07,0,0,0,6.91,1.42,8.35,8.35,0,0,0,4.81-1.22,4,4,0,0,0,1.75-3.48,3.48,3.48,0,0,0-2.06-3.32,42.88,42.88,0,0,0-6.72-2.43c-2.59-.75-4.81-1.48-6.64-2.18a17,17,0,0,1-4.43-2.39,8.08,8.08,0,0,1-2.44-3.08,10.32,10.32,0,0,1-.76-4.17,13.87,13.87,0,0,1,1.18-5.83,12.48,12.48,0,0,1,3.32-4.41,15,15,0,0,1,5-2.8,19.45,19.45,0,0,1,6.22-1,25.28,25.28,0,0,1,8.44,1.38,20.4,20.4,0,0,1,7.22,4.45l-4.13,6.56a23.27,23.27,0,0,0-5.91-3.56A15.31,15.31,0,0,0,462,213a7.82,7.82,0,0,0-4.35,1.14,4,4,0,0,0-1.76,3.64,3.66,3.66,0,0,0,.42,1.86,3.72,3.72,0,0,0,1.34,1.3A12.48,12.48,0,0,0,460,222c1,.35,2.23.72,3.7,1.1,2.75.75,5.11,1.51,7.07,2.26a19.08,19.08,0,0,1,4.81,2.59,9.35,9.35,0,0,1,2.75,3.36,11,11,0,0,1,.87,4.58,12.09,12.09,0,0,1-4.35,9.84Q470.54,249.37,463.06,249.37Z" transform="translate(-74.28 -74.28)"/><path class="cls-3" d="M509.86,249.37a15,15,0,0,1-8.24-2.23,15.33,15.33,0,0,1-5.5-6v24.7H485.89V206.13h8.93v7.29a16.79,16.79,0,0,1,5.73-5.87,15.21,15.21,0,0,1,8.09-2.15,16.3,16.3,0,0,1,7.48,1.74,18.64,18.64,0,0,1,5.92,4.7,22.21,22.21,0,0,1,3.89,7,25.14,25.14,0,0,1,1.42,8.47,28.39,28.39,0,0,1-1.3,8.66,22.65,22.65,0,0,1-3.63,7,17.1,17.1,0,0,1-5.53,4.7A14.82,14.82,0,0,1,509.86,249.37Zm-3.43-9.23a8.75,8.75,0,0,0,4.23-1,10.42,10.42,0,0,0,3.33-2.84,13.56,13.56,0,0,0,2.13-4.13,15.53,15.53,0,0,0,.77-4.85,14.38,14.38,0,0,0-.84-5,12.51,12.51,0,0,0-2.33-4,10.85,10.85,0,0,0-3.51-2.67,10,10,0,0,0-4.4-1,9.09,9.09,0,0,0-3,.53,10.26,10.26,0,0,0-2.83,1.5,13.1,13.1,0,0,0-2.33,2.26,9.62,9.62,0,0,0-1.56,2.84v10a14.25,14.25,0,0,0,4.2,6A9.29,9.29,0,0,0,506.43,240.14Z" transform="translate(-74.28 -74.28)"/><path class="cls-3" d="M550.79,249.37a17.11,17.11,0,0,1-7.6-1.7,18.1,18.1,0,0,1-6-4.7,22.16,22.16,0,0,1-3.94-7,25.8,25.8,0,0,1-1.41-8.62,26.33,26.33,0,0,1,1.38-8.63,22.38,22.38,0,0,1,3.77-7,18,18,0,0,1,5.69-4.66,15.27,15.27,0,0,1,7.1-1.7,14.68,14.68,0,0,1,8,2.23,15.47,15.47,0,0,1,5.5,6v-7h10.23v41.86H563.31v-6.88a15.5,15.5,0,0,1-5.08,5.67A13.27,13.27,0,0,1,550.79,249.37ZM563.31,223a13.92,13.92,0,0,0-4.16-6,9.42,9.42,0,0,0-6.15-2.31,8.51,8.51,0,0,0-4.24,1.1,11.36,11.36,0,0,0-3.36,2.91,13.8,13.8,0,0,0-2.17,4.13,15.25,15.25,0,0,0-.77,4.82,14.69,14.69,0,0,0,.81,4.9,12.27,12.27,0,0,0,2.25,4,10.45,10.45,0,0,0,3.47,2.67,10,10,0,0,0,4.39,1,9.34,9.34,0,0,0,5.92-1.94,14.17,14.17,0,0,0,4-5.19Z" transform="translate(-74.28 -74.28)"/><path class="cls-3" d="M620,248.56H609.73V224.75q0-5.1-1.68-7.44a5.4,5.4,0,0,0-4.66-2.35,8.21,8.21,0,0,0-3.13.65,11.47,11.47,0,0,0-3,1.82,14.3,14.3,0,0,0-2.56,2.79,11.53,11.53,0,0,0-1.68,3.56v24.78H582.78V206.13H592V214a15.5,15.5,0,0,1,6.41-6.32,19.64,19.64,0,0,1,9.47-2.27,11.54,11.54,0,0,1,6.11,1.46,10.13,10.13,0,0,1,3.66,3.81,16.33,16.33,0,0,1,1.8,5.34,37.19,37.19,0,0,1,.49,6.07Zm-12.9-48.74a7.51,7.51,0,0,1-3-.57A18.82,18.82,0,0,1,601.6,198c-.74-.45-1.48-.87-2.21-1.25a5,5,0,0,0-2.33-.57,3.22,3.22,0,0,0-2,.57,4,4,0,0,0-1.1,1.29,3.89,3.89,0,0,0-.46,1.34c-.05.4-.08.63-.08.69h-5.65a11.07,11.07,0,0,1,.46-2.47,13.73,13.73,0,0,1,1.49-3.48,11,11,0,0,1,2.75-3.08,6.7,6.7,0,0,1,4.24-1.34,6.93,6.93,0,0,1,3,.61,26.5,26.5,0,0,1,2.37,1.3c.74.46,1.47.89,2.21,1.29a5,5,0,0,0,2.48.61,3.69,3.69,0,0,0,2.18-.57,4,4,0,0,0,1.22-1.29,4.47,4.47,0,0,0,.54-1.38,7.71,7.71,0,0,0,.11-.81h5.65a10.93,10.93,0,0,1-.46,2.27,12.9,12.9,0,0,1-1.56,3.48,12.66,12.66,0,0,1-2.9,3.2A7,7,0,0,1,607.06,199.82Z" transform="translate(-74.28 -74.28)"/><path class="cls-3" d="M647.37,249.37a20.87,20.87,0,0,1-8.78-1.78,19.67,19.67,0,0,1-6.6-4.82,21.3,21.3,0,0,1-4.16-7,24.94,24.94,0,0,1,0-16.76,21.34,21.34,0,0,1,4.16-7,19.8,19.8,0,0,1,6.6-4.82,21,21,0,0,1,8.78-1.78,20.76,20.76,0,0,1,8.75,1.78,19.85,19.85,0,0,1,6.56,4.82,21.34,21.34,0,0,1,4.16,7,24.78,24.78,0,0,1,0,16.76,21.72,21.72,0,0,1-4.12,7,19.26,19.26,0,0,1-6.57,4.82A20.81,20.81,0,0,1,647.37,249.37Zm-10.46-21.94a15.44,15.44,0,0,0,.81,5.14,12.75,12.75,0,0,0,2.21,4,10,10,0,0,0,3.32,2.63,9.61,9.61,0,0,0,8.25,0,10,10,0,0,0,3.32-2.63,12.74,12.74,0,0,0,2.21-4.05,15.81,15.81,0,0,0,.8-5.18,15.5,15.5,0,0,0-.8-5.1,12.53,12.53,0,0,0-2.21-4.05,10,10,0,0,0-3.32-2.64,9.33,9.33,0,0,0-4.13-.93,8.94,8.94,0,0,0-4.12,1,10.26,10.26,0,0,0-3.32,2.67,12.53,12.53,0,0,0-2.21,4.05A15.5,15.5,0,0,0,636.91,227.43Z" transform="translate(-74.28 -74.28)"/><path class="cls-3" d="M675.32,189.45h10.23v59.11H675.32Z" transform="translate(-74.28 -74.28)"/><path class="cls-3" d="M711.59,249.37a17.08,17.08,0,0,1-7.6-1.7,18.14,18.14,0,0,1-6-4.7,22.33,22.33,0,0,1-3.93-7,25.8,25.8,0,0,1-1.41-8.62,26.6,26.6,0,0,1,1.37-8.63,22.6,22.6,0,0,1,3.78-7,18,18,0,0,1,5.69-4.66,15.27,15.27,0,0,1,7.1-1.7,14.68,14.68,0,0,1,8,2.23,15.47,15.47,0,0,1,5.5,6v-7h10.23v41.86H724.11v-6.88a15.5,15.5,0,0,1-5.08,5.67A13.27,13.27,0,0,1,711.59,249.37ZM724.11,223a14,14,0,0,0-4.16-6,9.42,9.42,0,0,0-6.15-2.31,8.51,8.51,0,0,0-4.24,1.1,11.12,11.12,0,0,0-3.36,2.91,13.58,13.58,0,0,0-2.17,4.13,15.25,15.25,0,0,0-.77,4.82,14.69,14.69,0,0,0,.81,4.9,12.27,12.27,0,0,0,2.25,4,10.45,10.45,0,0,0,3.47,2.67,10,10,0,0,0,4.39,1,9.36,9.36,0,0,0,5.92-1.94,14.17,14.17,0,0,0,4-5.19Z" transform="translate(-74.28 -74.28)"/><path class="cls-3" d="M418.7,162.16a17.08,17.08,0,0,1-7.6-1.7,18.27,18.27,0,0,1-6-4.7,22.19,22.19,0,0,1-3.93-7,25.76,25.76,0,0,1-1.41-8.62,26.53,26.53,0,0,1,1.37-8.62,22.77,22.77,0,0,1,3.78-7,17.88,17.88,0,0,1,5.69-4.65,15.15,15.15,0,0,1,7.1-1.7,14.67,14.67,0,0,1,8,2.22,15.57,15.57,0,0,1,5.5,6v-7h10.23v41.87H431.22v-6.89a15.5,15.5,0,0,1-5.08,5.67A13.27,13.27,0,0,1,418.7,162.16Zm12.52-26.4a13.94,13.94,0,0,0-4.16-6,9.42,9.42,0,0,0-6.15-2.31,8.5,8.5,0,0,0-4.24,1.09,11,11,0,0,0-3.36,2.92,13.46,13.46,0,0,0-2.17,4.13,15.14,15.14,0,0,0-.77,4.81,14.94,14.94,0,0,0,.8,4.9,12.36,12.36,0,0,0,2.26,4A10.2,10.2,0,0,0,416.9,152a10,10,0,0,0,4.39,1,9.31,9.31,0,0,0,5.92-2,14.05,14.05,0,0,0,4-5.18Z" transform="translate(-74.28 -74.28)"/><path class="cls-3" d="M465.81,162.16a29.41,29.41,0,0,1-9.85-1.7,23.84,23.84,0,0,1-8.25-4.86l3.82-6.8a32.64,32.64,0,0,0,7.14,4.17,18.24,18.24,0,0,0,6.91,1.41,8.37,8.37,0,0,0,4.81-1.21,4,4,0,0,0,1.75-3.48,3.48,3.48,0,0,0-2.06-3.32,42.88,42.88,0,0,0-6.72-2.43c-2.59-.76-4.81-1.49-6.64-2.19a16.74,16.74,0,0,1-4.43-2.39,8.05,8.05,0,0,1-2.44-3.07,10.35,10.35,0,0,1-.77-4.17,13.84,13.84,0,0,1,1.19-5.83,12.61,12.61,0,0,1,3.32-4.42,15.15,15.15,0,0,1,5-2.79,19.18,19.18,0,0,1,6.22-1,25.54,25.54,0,0,1,8.44,1.37,20.43,20.43,0,0,1,7.22,4.46l-4.13,6.56a23.8,23.8,0,0,0-5.91-3.57,15.5,15.5,0,0,0-5.69-1.13,7.94,7.94,0,0,0-4.36,1.13,4,4,0,0,0-1.75,3.65,3.71,3.71,0,0,0,.42,1.86,3.75,3.75,0,0,0,1.33,1.29,12.86,12.86,0,0,0,2.41,1.1c1,.35,2.23.71,3.7,1.09,2.75.76,5.11,1.51,7.07,2.27a18.93,18.93,0,0,1,4.81,2.59,9.19,9.19,0,0,1,2.75,3.36,10.93,10.93,0,0,1,.87,4.57,12.09,12.09,0,0,1-4.35,9.84Q473.29,162.17,465.81,162.16Z" transform="translate(-74.28 -74.28)"/><path class="cls-3" d="M507.11,162.16a21,21,0,0,1-8.78-1.78,19.8,19.8,0,0,1-6.6-4.82,21.34,21.34,0,0,1-4.16-7,24,24,0,0,1-1.45-8.34,24.27,24.27,0,0,1,1.45-8.42,21.3,21.3,0,0,1,4.16-7,19.67,19.67,0,0,1,6.6-4.82,20.87,20.87,0,0,1,8.78-1.78,20.6,20.6,0,0,1,8.75,1.78,19.71,19.71,0,0,1,6.56,4.82,21.3,21.3,0,0,1,4.16,7,24.27,24.27,0,0,1,1.45,8.42,24,24,0,0,1-1.45,8.34,21.77,21.77,0,0,1-4.12,7,19.39,19.39,0,0,1-6.57,4.82A21,21,0,0,1,507.11,162.16Zm-10.46-21.95a15.66,15.66,0,0,0,.8,5.14,12.86,12.86,0,0,0,2.22,4A9.88,9.88,0,0,0,503,152a9.52,9.52,0,0,0,8.25,0,9.88,9.88,0,0,0,3.32-2.63,12.53,12.53,0,0,0,2.21-4.05,15.77,15.77,0,0,0,.8-5.18,15.58,15.58,0,0,0-.8-5.1,12.63,12.63,0,0,0-2.21-4.05,10,10,0,0,0-3.32-2.63,9.33,9.33,0,0,0-4.13-.93,8.93,8.93,0,0,0-4.12,1,10.52,10.52,0,0,0-3.32,2.67,13,13,0,0,0-2.22,4.05A15.85,15.85,0,0,0,496.65,140.21Z" transform="translate(-74.28 -74.28)"/><path class="cls-3" d="M532.38,140.13a24.28,24.28,0,0,1,1.46-8.42A20.33,20.33,0,0,1,544.68,120a20.81,20.81,0,0,1,8.78-1.78,20.21,20.21,0,0,1,11.19,3,18.76,18.76,0,0,1,6.9,7.86l-10,3.24a9.38,9.38,0,0,0-12.29-3.93,10.14,10.14,0,0,0-3.32,2.59,12.32,12.32,0,0,0-2.22,4,16.08,16.08,0,0,0-.8,5.18,15.25,15.25,0,0,0,.84,5.18,13.2,13.2,0,0,0,2.25,4.05,9.91,9.91,0,0,0,3.33,2.63,9,9,0,0,0,4,.94,9.41,9.41,0,0,0,5.08-1.46,8.1,8.1,0,0,0,3.25-3.56l10,3.23a17.53,17.53,0,0,1-6.8,7.94,20.41,20.41,0,0,1-11.37,3.08,21,21,0,0,1-8.78-1.78,20.32,20.32,0,0,1-6.65-4.82,21.66,21.66,0,0,1-4.23-7.05A23.68,23.68,0,0,1,532.38,140.13Z" transform="translate(-74.28 -74.28)"/><path class="cls-3" d="M578,113V102.24H588.2V113Zm0,48.35V118.92H588.2v42.43Z" transform="translate(-74.28 -74.28)"/><path class="cls-3" d="M613.93,162.16a17.11,17.11,0,0,1-7.6-1.7,18.34,18.34,0,0,1-6-4.7,22.19,22.19,0,0,1-3.93-7,25.51,25.51,0,0,1-1.41-8.62,26.27,26.27,0,0,1,1.37-8.62,22.77,22.77,0,0,1,3.78-7,17.77,17.77,0,0,1,5.69-4.65,15.12,15.12,0,0,1,7.1-1.7,14.72,14.72,0,0,1,8,2.22,15.47,15.47,0,0,1,5.49,6v-7h10.23v41.87H626.45v-6.89a15.39,15.39,0,0,1-5.07,5.67A13.33,13.33,0,0,1,613.93,162.16Zm12.52-26.4a13.78,13.78,0,0,0-4.16-6,9.42,9.42,0,0,0-6.14-2.31,8.5,8.5,0,0,0-4.24,1.09,11,11,0,0,0-3.36,2.92,13.7,13.7,0,0,0-2.18,4.13,15.14,15.14,0,0,0-.76,4.81,14.94,14.94,0,0,0,.8,4.9,12.34,12.34,0,0,0,2.25,4,10.33,10.33,0,0,0,3.48,2.67,10,10,0,0,0,4.39,1,9.26,9.26,0,0,0,5.91-2,14,14,0,0,0,4-5.18Z" transform="translate(-74.28 -74.28)"/><path class="cls-3" d="M643.4,140.13a24.51,24.51,0,0,1,1.45-8.42,20.74,20.74,0,0,1,4.2-7A20.5,20.5,0,0,1,655.7,120a20.81,20.81,0,0,1,8.78-1.78,20.17,20.17,0,0,1,11.18,3,18.72,18.72,0,0,1,6.91,7.86l-10,3.24a9.38,9.38,0,0,0-12.29-3.93,10,10,0,0,0-3.32,2.59,12.14,12.14,0,0,0-2.22,4,16.08,16.08,0,0,0-.8,5.18,15.25,15.25,0,0,0,.84,5.18,13.2,13.2,0,0,0,2.25,4.05,9.88,9.88,0,0,0,3.32,2.63,9,9,0,0,0,4,.94,9.44,9.44,0,0,0,5.08-1.46,8,8,0,0,0,3.24-3.56l10,3.23a17.53,17.53,0,0,1-6.8,7.94,20.45,20.45,0,0,1-11.38,3.08,21,21,0,0,1-8.78-1.78,20.28,20.28,0,0,1-6.64-4.82,21.69,21.69,0,0,1-4.24-7.05A23.9,23.9,0,0,1,643.4,140.13Z" transform="translate(-74.28 -74.28)"/><path class="cls-3" d="M687.46,113V102.24h10.23V113Zm0,48.35V118.92h10.23v42.43Z" transform="translate(-74.28 -74.28)"/><path class="cls-3" d="M725.41,162.16a21,21,0,0,1-8.78-1.78,19.85,19.85,0,0,1-6.61-4.82,21.51,21.51,0,0,1-4.16-7,24,24,0,0,1-1.45-8.34,24.27,24.27,0,0,1,1.45-8.42,21.47,21.47,0,0,1,4.16-7,19.71,19.71,0,0,1,6.61-4.82,20.81,20.81,0,0,1,8.78-1.78,20.59,20.59,0,0,1,8.74,1.78,19.85,19.85,0,0,1,6.57,4.82,21.64,21.64,0,0,1,4.16,7,24.51,24.51,0,0,1,1.45,8.42,24.22,24.22,0,0,1-1.45,8.34,21.8,21.8,0,0,1-4.13,7,19.44,19.44,0,0,1-6.56,4.82A21,21,0,0,1,725.41,162.16ZM715,140.21a15.4,15.4,0,0,0,.8,5.14,12.64,12.64,0,0,0,2.21,4,9.88,9.88,0,0,0,3.32,2.63,9.52,9.52,0,0,0,8.25,0,9.88,9.88,0,0,0,3.32-2.63,12.74,12.74,0,0,0,2.22-4.05,16,16,0,0,0,.8-5.18,15.85,15.85,0,0,0-.8-5.1,12.85,12.85,0,0,0-2.22-4.05,10,10,0,0,0-3.32-2.63,9.29,9.29,0,0,0-4.12-.93,9,9,0,0,0-4.13,1,10.52,10.52,0,0,0-3.32,2.67,12.74,12.74,0,0,0-2.21,4.05A15.58,15.58,0,0,0,715,140.21ZM728,114l-6.56-2.11,4.12-9.63h9.54Z" transform="translate(-74.28 -74.28)"/><path class="cls-3" d="M790.38,161.35H780.15V137.54q0-5.1-1.68-7.45a5.42,5.42,0,0,0-4.66-2.35,8.4,8.4,0,0,0-3.13.65,11.47,11.47,0,0,0-3,1.82,14.66,14.66,0,0,0-2.56,2.8,11.42,11.42,0,0,0-1.68,3.56v24.78H753.2V118.92h9.24v7.85a15.47,15.47,0,0,1,6.41-6.31,19.53,19.53,0,0,1,9.47-2.27,11.45,11.45,0,0,1,6.11,1.46,10.17,10.17,0,0,1,3.66,3.8,16.5,16.5,0,0,1,1.8,5.34,37.31,37.31,0,0,1,.49,6.08Z" transform="translate(-74.28 -74.28)"/></g></svg>